<?xml version="1.0" standalone="no"?>
<!DOCTYPE svg PUBLIC "-//W3C//DTD SVG 20010904//EN"
 "http://www.w3.org/TR/2001/REC-SVG-20010904/DTD/svg10.dtd">
<svg version="1.0" xmlns="http://www.w3.org/2000/svg"
 width="700.000000pt" height="700.000000pt" viewBox="0 0 700.000000 700.000000"
 preserveAspectRatio="xMidYMid meet">
<metadata>
Created by potrace 1.11, written by Peter Selinger 2001-2013
</metadata>
<g transform="translate(0.000000,700.000000) scale(0.100000,-0.100000)"
fill="#000000" stroke="none">
<path d="M3255 6728 c-146 -14 -201 -20 -225 -23 -55 -8 -243 -45 -283 -56
-23 -6 -53 -13 -67 -16 -50 -8 -284 -85 -388 -127 -461 -186 -873 -476 -1215
-856 -82 -90 -243 -306 -318 -425 -158 -251 -298 -571 -385 -885 -32 -117 -78
-380 -91 -521 -10 -103 -9 -543 0 -619 4 -30 10 -75 12 -100 24 -212 101 -517
189 -742 267 -688 742 -1244 1391 -1631 46 -27 370 -191 370 -187 0 2 38 -11
60 -20 96 -39 133 -52 225 -79 58 -17 119 -36 135 -41 17 -5 66 -16 109 -25
44 -9 82 -17 85 -19 7 -5 55 -12 126 -21 28 -3 64 -9 80 -12 35 -8 38 -8 180
-18 290 -22 631 -2 875 51 163 35 400 102 475 133 11 5 52 21 90 36 824 327
1483 993 1809 1828 41 104 110 322 121 379 2 11 6 27 9 36 3 9 8 33 11 52 3
19 10 51 15 70 5 19 12 58 16 85 3 28 7 52 9 55 3 5 7 37 25 209 8 77 6 541
-3 596 -3 17 -8 57 -12 90 -4 32 -8 67 -10 76 -2 9 -6 34 -9 55 -28 173 -112
482 -166 609 -4 11 -27 65 -50 120 -294 695 -858 1289 -1540 1621 -47 23 -102
49 -122 58 -21 9 -53 22 -70 30 -212 90 -557 185 -773 211 -28 3 -63 8 -80 10
-133 18 -483 26 -610 13z"/>
</g>
</svg>
