<svg xmlns="http://www.w3.org/2000/svg" xmlns:xlink="http://www.w3.org/1999/xlink" width="100%" height="100%"  viewBox="0 0 111.125 39.688" preserveAspectRatio="xMinYMid"><defs><linearGradient xlink:href="#a" id="b" x1="20.586" y1="136.036" x2="27.972" y2="128.87" gradientUnits="userSpaceOnUse" gradientTransform="translate(28.498 -8.173) scale(2.15218)"/><linearGradient id="a"><stop offset="0" stop-color="#ff8a1c"/><stop offset="1" stop-color="#ff0e1c"/></linearGradient></defs><g transform="translate(0 -257.312)"><circle cx="81.867" cy="277.123" r="13.88" fill="url(#b)" fill-rule="evenodd" stroke-width="1.205"/><g aria-label="lokal" style="line-height:1.25;-inkscape-font-specification:'open sans'" font-weight="400" font-size="22.777" font-family="Lily Script One" letter-spacing="0" word-spacing="0" stroke-width=".569"><path d="M17.355 286.83q-1.39 0-2.187-.775-.797-.797-.797-2.164 0-.364 1.23-10.82.319-2.687 1.708-3.393.638-.342 1.526-.342 3.007 0 3.007 2.78 0 .227-.023.478-.228 3.052-3.827 6.218-.113 1.116-.25 2.164-.273 2.346-.273 2.596 0 1.185 1.025 1.185 1.116 0 2.072-1.276.98-1.298 1.504-3.303.205.069.569.388.364.296.501.523-.364 1.891-1.64 3.622-.638.888-1.617 1.458-1.116.66-2.528.66zm.888-10.296q2.095-2.3 2.095-4.123 0-1.093-.82-1.093-.523.046-.706.683-.159.638-.318 2.073-.137 1.435-.183 1.777z" style="-inkscape-font-specification:'Lily Script One'"/><path d="M27.255 275.714q2.095 0 3.484 1.344 1.413 1.344 1.413 3.28 0 2.938-1.731 4.715-1.709 1.754-4.146 1.754t-3.872-1.39q-1.412-1.39-1.412-3.44 0-2.87 1.754-4.555 1.776-1.708 4.51-1.708zm-.456 1.845q-1.07 0-1.8 1.23-.728 1.23-.797 3.098 0 1.32.524 2.186.547.866 1.64.866 1.094 0 1.822-1.207.752-1.208.752-2.756 0-1.55-.524-2.46-.524-.957-1.617-.957zM43.439 278.47q0 2.369-2.825 3.622.068.41.205.98.41 1.685 1.367 1.73h.136q1.823 0 2.71-3.211.48.432.912 1.298-.319 1.23-.911 2.073-.57.842-1.253 1.207-1.207.638-2.278.638-2.505 0-3.507-2.802-.387-1.116-.524-2.278 1.298-.319 2.05-1.048.751-.751.751-1.594 0-1.458-1.457-1.458-.797 0-1.367.615-.57.593-.752 1.435-.136 1.162-.455 3.667-.296 2.483-.387 3.326h-3.03q1.64-13.963 1.982-17.151.478-.183 1.298-.183 1.777 0 1.777 1.048v.137q-.456 4.123-.843 6.31 1.253-1.163 3.143-1.163 1.413 0 2.324.73.934.728.934 2.072z" style="-inkscape-font-specification:'Lily Script One'"/><path d="M54.556 286.784q-2.096 0-2.779-1.458-1.184 1.48-3.052 1.48-1.845 0-3.12-1.252-1.253-1.253-1.253-3.303 0-2.984 1.754-4.76 1.753-1.777 4.441-1.777h.137q1.139 0 2.095.387.615-.387 1.48-.387.89 0 1.276.228-.205 1.685-.432 3.325-.228 1.617-.32 2.3-.204 1.55-.204 2.233 0 .911.729.911.569 0 1.207-.752.638-.774 1.116-2.414.66.592.911 1.321-.66 2.164-1.777 3.052-1.116.866-2.209.866zm-3.667-9.293q-1.458 0-2.323 1.116-.843 1.093-1.003 3.28-.022.205-.022.387 0 1.116.523 1.777.547.66 1.39.66 1.435 0 2.164-2.027l.546-4.92q-.66-.273-1.275-.273z" style="-inkscape-font-specification:'Lily Script One'"/><path d="M59.973 286.83q-1.39 0-2.187-.775-.797-.797-.797-2.164 0-.364 1.23-10.82.32-2.687 1.708-3.393.638-.342 1.527-.342 3.006 0 3.006 2.78 0 .227-.023.478-.227 3.052-3.826 6.218-.114 1.116-.25 2.164-.274 2.346-.274 2.596 0 1.185 1.025 1.185 1.116 0 2.073-1.276.98-1.298 1.503-3.303.205.069.57.388.364.296.5.523-.364 1.891-1.64 3.622-.637.888-1.617 1.458-1.116.66-2.528.66zm.888-10.296q2.096-2.3 2.096-4.123 0-1.093-.82-1.093-.524.046-.706.683-.16.638-.32 2.073-.136 1.435-.181 1.777z" style="-inkscape-font-specification:'Lily Script One'"/></g><g aria-label="wirkt" style="line-height:1.25;-inkscape-font-specification:'open sans'" font-weight="700" font-size="8.584" font-family="Rounded Mplus 1c" letter-spacing="-.61" word-spacing="0" fill="#fff" stroke-width=".209"><path d="M71.888 279.559l-.798-3.52q-.035-.18.077-.326.111-.146.3-.146h.43q.214 0 .369.138.154.137.188.343l.43 2.858q0 .01.008.01.009 0 .009-.01l.472-2.858q.034-.206.189-.343.154-.138.369-.138h.635q.215 0 .37.138.162.137.197.343l.463 2.858q0 .01.009.01.008 0 .008-.01l.43-2.858q.034-.206.189-.343.154-.138.369-.138h.395q.188 0 .3.146.12.146.077.326l-.798 3.52q-.043.206-.215.343-.171.129-.386.129h-.67q-.214 0-.377-.137-.155-.138-.198-.344l-.489-2.772q0-.01-.009-.01-.008 0-.008.01l-.49 2.772q-.034.206-.197.344-.163.137-.378.137h-.67q-.214 0-.385-.129-.172-.137-.215-.343zM78.323 280.03q-.198 0-.344-.145-.146-.146-.146-.343v-3.485q0-.198.146-.344.146-.146.344-.146h.48q.198 0 .344.146.146.146.146.344v3.485q0 .197-.146.343-.146.146-.344.146zm0-5.321q-.198 0-.344-.146-.146-.146-.146-.343v-.138q0-.197.146-.343.146-.146.344-.146h.48q.198 0 .344.146.146.146.146.343v.138q0 .197-.146.343-.146.146-.344.146zM80.508 280.03q-.198 0-.344-.145-.137-.146-.137-.343v-3.485q0-.198.137-.344.146-.146.344-.146h.42q.198 0 .335.146.146.146.146.344v.36q0 .009.009.009.017 0 .017-.009.532-.712 1.485-.833.197-.025.335.12.146.146.146.353v.068q0 .198-.146.344-.138.146-.344.163-.695.077-1.081.48-.378.395-.378 1.03v1.4q0 .197-.146.343-.137.146-.335.146zM84.283 280.03q-.197 0-.343-.145-.137-.146-.137-.343v-5.46q0-.197.137-.343.146-.146.343-.146h.421q.197 0 .335.146.146.146.146.343v3.168q0 .009.008.009l.017-.01 1.073-1.304q.31-.378.79-.378h.618q.138 0 .198.129.068.129-.026.24l-1.468 1.726q-.043.051 0 .111l1.485 1.88q.086.12.017.25-.06.128-.206.128h-.618q-.48 0-.78-.386l-1.083-1.408q-.008-.01-.017-.01-.008 0-.008.01v1.305q0 .197-.146.343-.138.146-.335.146z" style="-inkscape-font-specification:'Rounded Mplus 1c Bold'"/><path d="M88.253 276.709q-.197 0-.343-.137-.146-.146-.146-.344 0-.197.146-.343.146-.146.343-.146h.344q.068 0 .068-.077v-1.065q0-.197.146-.343.146-.146.344-.146h.412q.197 0 .343.146.146.146.146.343v1.065q0 .077.077.077h.841q.198 0 .335.146.146.146.146.343 0 .198-.146.344-.137.137-.335.137h-.84q-.078 0-.078.077v1.468q0 .54.094.687.103.146.447.146.18 0 .283-.017.189-.026.335.085.146.112.146.292v.069q0 .214-.138.378-.137.163-.352.188-.266.035-.618.035-.875 0-1.236-.37-.352-.377-.352-1.347v-1.614q0-.077-.068-.077z" style="-inkscape-font-specification:'Rounded Mplus 1c Bold'"/></g></g></svg>