<svg xmlns="http://www.w3.org/2000/svg" viewBox="0 0 264.583 132.292" version="1.1" id="bonn" width="100%" height="100%" preserveAspectRatio="xMinYMid"><style id="style27"></style><defs id="defs815"><linearGradient id="linearGradient_main" x1="18.976" y1="281.766" x2="248.28" y2="211.101" gradientUnits="userSpaceOnUse" gradientTransform="translate(.107 -.004)"><stop offset="0" id="linearGradient_main_start" stop-color="#4f698a" stop-opacity="1"/><stop offset="1" id="linearGradient_main_end" stop-color="#4f698a" stop-opacity=".8"/></linearGradient></defs><g id="layer1" transform="translate(0 -164.708)"><g id="g28-0-7-6" transform="matrix(.31555 0 0 .30693 156.277 147.46)" clip-path="none" clip-rule="evenodd" fill="#000" fill-opacity=".996" fill-rule="evenodd" image-rendering="optimizeQuality" shape-rendering="geometricPrecision" text-rendering="geometricPrecision"><path d="M94.992 65.166v11.523h-9.826v11.184l-3.674-2.344-10.353 6.592.049.11v8.22l-3.243-1.492-2.93 1.31v-4.298l-2.986-1.42-.406-21.432h-2.336l-.508 19.889-1.875-.899-4.004 1.434v-8.074H33.982v15.092l-6.49-5.9-7.244 6.58.02.048h-1.829v6.861l-4.173-.011-2.62 5.16h1.208l.007 3.533-4.822.012-.004.441H4.693v-6.088H.105c-.14 4.895-.137 3.638.006 6.088H0v15.006h264.488v-11.223c.33-1.24.514-2.51.514-3.783.002-1.332-.004-12.344-.004-12.344s-1.63-3.727-12.043-6.295l-.28-4.359c.295-.117.609-.287.942-.516l1.272.75c.898.2 1.593.3 2.084.303.478.01.868-.09 1.168-.304 1.35-1.041 2.092-1.69 2.226-1.948.58-.75.737-1.662.47-2.732a2.995 2.913 0 00-.378-.842c-.056-.117-.356-.473-.904-1.068a1.404 1.404 0 01-.221-.366 1.096 1.096 0 01-.064-.425c.108-.743.14-1.182.093-1.317a2.05 2.05 0 00-.449-.972 1.31 1.31 0 00-.6-.434.927.927 0 00-.265-.035c-.461.04-.719.047-.772.021a1.027 1.027 0 01-.484-.215 2.402 2.402 0 01-.484-.55c-1.021-1.755-1.635-2.695-1.84-2.819-.43-.45-.967-.676-1.615-.675h-.002c-1.863.13-3.149.545-3.86 1.244-.313.292-.558.689-.732 1.193-.146.355-.31 1.132-.492 2.328-.035.145-.067.225-.098.244-.042.03-.087.025-.133-.011-.335-.308-.59-.483-.76-.526a1.355 1.318 0 00-.752-.043c-.648.145-1.42.61-2.316 1.395-1.661 1.526-2.3 2.889-1.916 4.088.168.612.576 1.226 1.223 1.84.699.654 1.424 1.103 2.173 1.35a3.2 3.2 0 001.245.155c.114.023.703-.117 1.767-.418.24-.047.457-.057.65-.03.181.019.385.092.616.222l1.369.976c.165.108.332.19.5.246l-.092 3.858c-5.368-1.151-12.782-1.984-23.004-1.984l-.178-2.957 5.659-.014-6.285-16.535-.002-.008-5.91 16.572 4.958-.012-.1 2.22c-4.56-1.873-7.565-3.652-10.15-4.487l-.127-2.076 5.66-.014-6.285-16.535-.003-.008-5.909 16.57 4.957-.011-.072 1.65c-2.61-.362-5.052.578-8.701 3.852l-10.504-14.291-.33-5h-2.393l-.46 5h-7.82l-.499-.487h-2.855l-.838 6.705-4.07-2.113-8.329 4.36v2.548h-3.674v-6.885h-9.119v-3.412l-4.935-2.537V72.84l-5.598-4.797-3.635 3.049c-.185 3.638-.679 5.481-.547 7.056-1.832.454-5.143.359-9.421.12h-9.063v12.724h-2.797V74.977h-2.027c-.47-3.315-3.465-5.864-7.092-5.864h-.246v-3.947H94.992z" transform="matrix(3.16909 0 0 3.25807 -495.257 56.195)" id="path26-0-7" fill="#000" fill-opacity=".996" stroke-width=".311"/></g></g></svg>